<?xml version="1.0" encoding="UTF-8"?>
<svg version="1.1" width="437.14597" height="142.04376" viewBox="0 0 437.14597 142.04376" xml:space="preserve" xmlns="http://www.w3.org/2000/svg"><title>Wuthering Waves logo</title><desc>Video game by Kuro Games</desc>
  <path d="M336.83678 129.06399v4.76915c0 2.8011-2.61595 3.81977-3.62599 3.81977H317.1548c-2.08445 0-4.46113-.95081-5.38403-4.65308-.25174-1.01004-.0273 0-.0273 0s-.008 3.5783-.008 3.70827c0 3.9085 3.6497 5.32979 5.05822 5.32979h26.1441c1.40883 0 5.05792-1.42129 5.05792-5.32979 0-.12997.0385-9.63804.0385-9.63804h-.006s.006-2.56466.006-2.65771c0-1.54886-.9269-2.46178-1.68597-3.1409-2.86692-2.56178-15.5171-12.23028-15.5171-12.23028s-3.61598-2.90062-4.67622-4.10873c-.70703-.80573-1.68536-1.59203-1.68536-3.14066 0-.0933.005-2.6577.005-2.6577v-7.57385s-.005-2.56442-.005-2.6577c0-2.8011 2.6158-3.81977 3.62523-3.81977h13.67715c2.08476 0 4.46051.9508 5.38433 4.65308 0 0 .0339-3.5783.0339-3.70827 0-3.9085-3.64909-5.3298-5.05792-5.3298h-23.61438c-1.40851 0-5.05822 1.4213-5.05822 5.3298 0 .12997.008 3.70827.008 3.70827l-.004 11.72717h.002s-.005 2.56466-.005 2.65771c0 1.54887.92367 2.46682 1.68536 3.1409 2.8951 2.56178 15.68646 12.23028 15.68646 12.23028s3.31775 2.62125 4.31855 3.77349c.70364.81124 1.68597 1.59203 1.68597 3.1409 0 .093-.006 2.6577-.006 2.6577h.006z"/>
  <path d="M298.06715 106.11479v12.4349c-1.69274-5.01153-3.59113-8.71335-10.49936-12.4349z"/>
  <path d="M303.90778 133.00378c-.92323 3.70227-3.29965 4.65308-5.38351 4.65308h-16.59176v-44.2359c0-6.79306-3.12699-8.33354-5.77918-8.33354h21.30143c2.08387 0 4.46028.9508 5.38351 4.65308.25179 1.01004.0264 0 .0264 0s.01-3.5783.01-3.70827c0-3.9085-3.64975-5.3298-5.05978-5.3298h-31.20298c1.90161 0 4.64492 3.0378 4.64492 9.28315v52.05818h27.62736c1.41003 0 5.05978-1.42106 5.05978-5.3298 0-.12997-.01-3.70826-.01-3.70826s.22541-1.0098-.0264 0z"/>
  <path d="m207.60889 80.70183 15.74543.0067 10.63582 56.57432 1.52427.0411c3.38408.0905 3.00815-1.71831 3.77598-6.54191l9.74244-50.0819h10.51413l-10.51413 57.10996c-.4081 2.66976-2.71472 4.3179-4.87836 4.2291h-20.57348l-10.0741-54.90609c-.93837-2.77194-3.79266-6.33928-5.89825-6.43361l.00025.0035"/>
  <path d="M168.13867 80.69922c2.92988 1.35344 5.57903 4.39193 4.18555 10.8164l-9.67774 50.52344h11.00977l5.41211-28.26172h10.11914c2.0534 0 4.39028.92246 5.3418 4.48828.27817 1.0417 4.46093 23.77344 4.46093 23.77344h11.00782l-11.50586-61.33984h-30.35352zm12.36328 4.44726h3.54493c2.70949.0036 4.157.55959 5.31835 5.24024 0 0 4.10983 20.70691 3.86524 20.34961-1.15536-1.68699-2.88007-1.83008-4.44141-1.83008h-8.78711l3.33008-17.38867c.22038-1.42345.36391-2.59678.38281-3.33008.03765-1.4743-1.1415-2.78516-3.21289-3.04102z"/>
  <path d="M90.4576 80.69493v.0034l11.08981.0073c3.51699-.1166 5.20716 2.79578 5.57354 4.40235l9.90265 52.44843h.0115l7.35825-38.00336-2.03851-9.2153h3.77655c2.31395 0 4.56848 1.7437 4.92114 3.55674l8.49393 43.67542 9.63996-50.43308c.37022-2.5275-1.00458-5.85932-3.16312-6.4447l7.6984.0049c3.9103.0026 6.45807 2.36336 6.32673 5.22407.0142 1.61929-10.206 56.09476-10.206 56.09476l-17.49328.0138-4.87664-21.9938-3.55186 21.9629-17.44133-.0117L96.05466 87.1415c-.81286-2.7789-3.50111-6.3551-5.59711-6.4499"/>
  <path d="M436.09803 61.36912V32.7915c0-2.88362-2.16779-4.5519-4.70248-4.5519h-9.80782c2.53469 0 4.70488 1.66828 4.70488 4.5519v19.33522c-.002 1.52845-1.61386 4.08178-4.08619 4.07757h-11.02601v-43.4818c0-6.79303-3.12699-8.33353-5.78158-8.33353h14.29208c2.65219 0 7.23237 2.70582 7.23237 9.49886h10.22268v-3.81208c0-7.33335-5.05978-10.05424-7.99014-10.05424L395.42795.00402c1.89922 0 4.64493 3.0376 4.64493 9.28278V56.204c-.005 3.12349 3.22291 5.16122 5.1557 5.16483h10.96125c5.49862 0 10.10278-2.946 10.10278-4.08269v4.0827h9.80542"/>
  <path d="m350.28802 61.34084 11.10754.02806V12.71827c0-6.79305-3.12699-8.33353-5.77918-8.33353h15.30643c2.65219 0 5.77918 1.54048 5.77918 8.33353V61.3687l11.10514.02782V12.08165c0-5.848-4.7936-12.0804-12.73818-12.0804H345.6431c1.90161 0 4.64492 3.03778 4.64492 9.28313V61.3665v-.0259Z"/>
  <path d="M322.6179.02744c1.90162 0 4.64493 3.03779 4.64493 9.28314v52.05818l10.56319.02614V5.35843c0-3.9085-3.64736-5.3298-5.05738-5.3298H322.6179Z"/>
  <path d="M273.0749.00144c1.90162 0 4.64493 3.03779 4.64493 9.28314v52.08216h11.28499V12.7185c0-6.79305-3.127-8.33353-5.77918-8.33353h14.77647c2.65459 0 7.23237 2.52054 7.23237 9.31384v7.30095c0 5.01733-6.53935 7.23668-10.33058 7.23668h1.33808c3.68093 0 8.9925 4.85715 8.9925 14.84266v13.75277c0 9.88264 11.59913 11.32743 17.65647 11.32743h.17506c-2.19417 0-7.99014-1.34743-7.99014-10.05481 0-.35179.0552-14.50406.0552-15.02539 0-9.98551-5.2828-14.84266-8.94215-14.84266 2.93036 0 7.99014-2.1016 7.99014-6.8024V10.05456C314.17902 2.72101 309.11924 0 306.18888 0H273.0749Z"/>
  <path d="M260.65715 25.4158v12.43489c-1.69274-5.01153-3.59113-8.71335-10.49936-12.4349Z"/>
  <path d="M266.49278 52.30278c-.92323 3.70227-3.29965 4.65308-5.38351 4.65308h-16.59176v-44.2359c0-6.79306-3.12699-8.33354-5.77918-8.33354h21.30143c2.08387 0 4.46028.9508 5.38351 4.65308.25179 1.01004.0264 0 .0264 0s.01-3.5783.01-3.70827c0-3.9085-3.64975-5.3298-5.05978-5.3298h-31.20298c1.90161 0 4.64492 3.0378 4.64492 9.28315v52.05818h27.62736c1.41003 0 5.05978-1.42106 5.05978-5.3298 0-.12997-.01-3.70826-.01-3.70826s.22541-1.0098-.0264 0z"/>
  <path d="M202.35785 29.37033c2.65459 0 5.77918 1.54047 5.77918 8.33353v23.6908h10.56319V5.35795c0-3.9085-3.64736-5.3298-5.05738-5.3298H203.4921c1.90162 0 4.64493 3.0378 4.64493 9.28315v18.83125c-1.06711-2.91213-3.19893-3.69532-5.09095-3.69532h-15.84359V5.38385c0-3.9085-3.64976-5.3298-5.05978-5.3298h-10.15073c1.90161 0 4.64732 3.0378 4.64732 9.28314v52.08456h10.56319V29.37248h15.15536z"/>
  <path d="M132.87228 6.24757h10.15106v55.14681h10.50994V6.24758h9.73323c1.13559 0 3.71949.90596 4.68077 3.3114 0 0 .008-4.07205.008-4.20202 0-3.90874-3.65028-5.33004-5.05759-5.33004h.0103-29.66623c-1.40987 0-5.05759 1.4213-5.05759 5.33004 0 .12997.005 4.20201.005 4.20201.96383-2.40543 3.54774-3.3114 4.68333-3.3114z"/>
  <path d="M105.10787.02744c1.90161 0 4.64493 3.03779 4.64493 9.28314V52.3307s-1.28293 6.9319-10.17951 6.9319c-10.46967 0-10.46967-6.9319-10.46967-6.9319V5.35867c0-3.9085-3.64736-5.3298-5.05738-5.3298H73.8955c1.90162 0 4.64493 3.0378 4.64493 9.28315v44.90494s2.52989 8.99154 21.03286 8.99154c22.2966 0 21.03046-10.87828 21.03046-10.87828V5.35819c0-3.9085-3.64976-5.3298-5.05739-5.3298h-10.43849z"/>
  <path d="M0 .08093v.00338l11.08982.00727c3.51699-.1166 5.20716 2.79578 5.57353 4.40235l9.90266 52.44843h.01155l7.35825-38.00337-2.0385-9.21528h3.77654c2.31395 0 4.56848 1.74369 4.92114 3.55672l8.49393 43.67543 9.63996-50.43308c.37022-2.5275-1.00458-5.85932-3.16312-6.4447l7.6984.00493c3.9103.0026 6.45807 2.36336 6.32673 5.22407.01419 1.61929-10.206 56.09476-10.206 56.09476l-17.49329.01376-4.87663-21.9938-3.55187 21.9629-17.44132-.01169L5.59711 6.52745C4.78426 3.74855 2.09601.17235.00001.07755"/>
</svg>
